<?xml version="1.0" encoding="utf-8"?>
<!-- Generator: Adobe Illustrator 27.0.0, SVG Export Plug-In . SVG Version: 6.00 Build 0)  -->
<svg version="1.1" id="Layer_1" xmlns="http://www.w3.org/2000/svg" xmlns:xlink="http://www.w3.org/1999/xlink" x="0px" y="0px"
	 viewBox="0 0 1167.194 150.322" style="enable-background:new 0 0 1167.194 150.322;" xml:space="preserve">
<style type="text/css">
	.st0{fill:#FFFFFF;}
	.st1{clip-path:url(#SVGID_00000179632497563025931540000003686779524986508438_);fill:#FF412A;}
	.st2{clip-path:url(#SVGID_00000148621791469407842870000012028725605881931953_);fill:#0046F6;}
</style>
<g id="Group_27" transform="translate(-18.067 -89.366)">
	<path id="Path_2438" class="st0" d="M347.316,168.405c0,13.04,4.507,24.01,13.634,32.995c18.469,18.293,48.272,18.151,66.565-0.319
		c8.731-8.815,13.629-20.722,13.627-33.129c0-12.926-4.507-23.9-13.606-32.769c-9.014-8.9-19.984-13.379-33.024-13.379
		c-12.508-0.234-24.563,4.686-33.335,13.606c-9.025,8.582-14.051,20.547-13.861,33L347.316,168.405z M374.557,148.222
		c10.649-10.896,28.114-11.097,39.01-0.448c0.151,0.148,0.3,0.297,0.448,0.448c5.324,5.304,8.243,12.557,8.079,20.07
		c0.139,7.55-2.774,14.837-8.079,20.211c-10.649,10.896-28.114,11.097-39.01,0.448c-0.151-0.148-0.3-0.297-0.448-0.448
		c-5.295-5.381-8.206-12.663-8.079-20.211C366.326,160.781,369.243,153.533,374.557,148.222L374.557,148.222z M526.21,152.134
		c0-9.212-3.005-16.384-9.127-21.345c-5.982-5.074-13.711-7.616-23.188-7.625h-33.563v90.369h18.68v-31.862h14.2
		c9.921,0,17.886-2.523,23.868-7.483c6.122-5.074,9.127-12.473,9.127-22.054L526.21,152.134z M507.388,152.616
		c0,7.824-6.69,11.651-14.995,11.651h-13.38v-23.443h13.266C500.925,140.824,507.388,144.396,507.388,152.616z M543.898,123.164
		v90.369h59.414V196.1h-40.96v-19.5h36.453v-17.549h-36.453v-18.34h40.734v-17.547H543.898z M642.572,151.227l41.528,62.306h19.049
		v-90.369h-18.454v58.989l-39.231-58.989h-21.345v90.369h18.453L642.572,151.227L642.572,151.227z M768.714,214.444
		c10.261,0,19.049-2.636,26.079-8.051c7.171-5.442,12.132-12.018,14.768-19.757l-8.532-4.025
		c-5.187,14.2-15.931,22.847-31.975,22.847c-10.261,0-18.68-3.572-25.37-10.63c-6.69-7.03-10.035-16.016-10.035-26.759
		s3.459-19.5,10.262-26.419c6.546-6.779,15.608-10.543,25.03-10.4c8.674,0,15.59,2.211,20.778,6.576
		c5.19,4.167,9.077,9.735,11.2,16.044l8.532-3.911c-2.41-7.626-7.143-14.089-14.2-19.5c-7.03-5.414-15.675-8.192-26.078-8.192
		c-12.072-0.198-23.698,4.555-32.174,13.153c-8.9,8.646-13.294,19.729-13.294,33.222c0,13.408,4.28,24.35,12.926,33.024
		c8.674,8.533,19.37,12.795,32.088,12.784L768.714,214.444z M840.232,123.164h-9.468v90.369h9.468V123.164z M897.432,176.937
		l26.674,36.6h11.537l-27.921-38.211c6.649-0.673,12.894-3.512,17.773-8.079c4.734-4.479,7.03-10.375,7.03-17.745
		c0.185-7.153-2.767-14.029-8.079-18.822c-5.3-4.961-13.152-7.512-23.669-7.512h-31.263v90.369h9.468v-36.6L897.432,176.937
		L897.432,176.937z M878.982,132.065h21.231c15.818,0,22.734,7.625,22.734,17.773c0.04,4.977-2.068,9.729-5.783,13.04
		c-3.8,3.571-9.552,5.414-17.177,5.414h-21.005V132.065z M994.805,214.444c10.29,0,19.049-2.636,26.079-8.051
		c7.172-5.442,12.132-12.018,14.769-19.757l-8.533-4.025c-5.187,14.2-15.93,22.847-31.974,22.847
		c-10.262,0-18.681-3.572-25.371-10.63c-6.689-7.03-10.034-16.016-10.034-26.759s3.458-19.5,10.261-26.419
		c6.547-6.778,15.608-10.543,25.03-10.4c8.674,0,15.591,2.211,20.778,6.576c5.19,4.167,9.077,9.735,11.2,16.044l8.532-3.911
		c-2.409-7.626-7.143-14.089-14.173-19.5c-7.058-5.414-15.7-8.192-26.079-8.192c-12.08-0.203-23.717,4.55-32.2,13.153
		c-8.9,8.646-13.266,19.729-13.266,33.222c0,13.408,4.252,24.35,12.926,33.024c8.645,8.532,19.36,12.784,32.059,12.784
		L994.805,214.444z M1066.324,123.168h-9.468v90.369h52.3v-8.9h-42.831L1066.324,123.168z M1184.812,123.168h-56.551v90.369h57
		v-8.763h-47.529v-32.8h43.059v-8.759h-43.059v-31.263h47.084L1184.812,123.168z"/>
</g>
<g>
	<g>
		<g>
			<g>
				<defs>
					<rect id="SVGID_1_" x="0" y="0" width="253.329" height="150.322"/>
				</defs>
				<clipPath id="SVGID_00000005960937818426381870000007127981129154508197_">
					<use xlink:href="#SVGID_1_"  style="overflow:visible;"/>
				</clipPath>
				<path style="clip-path:url(#SVGID_00000005960937818426381870000007127981129154508197_);fill:#FF412A;" d="M253.329,0
					c-41.511,0-75.161,33.652-75.161,75.161c0,41.511,33.65,75.161,75.161,75.161"/>
			</g>
		</g>
	</g>
	<g>
		<g>
			<g>
				<defs>
					<rect id="SVGID_00000136407196433312435900000003589550975510053804_" x="0" y="0" width="253.329" height="150.322"/>
				</defs>
				<clipPath id="SVGID_00000168084481472359926720000018439088953592078238_">
					<use xlink:href="#SVGID_00000136407196433312435900000003589550975510053804_"  style="overflow:visible;"/>
				</clipPath>
				<path style="clip-path:url(#SVGID_00000168084481472359926720000018439088953592078238_);fill:#0046F6;" d="M75.161,150.322
					c41.511,0,75.161-33.65,75.161-75.161C150.322,33.652,116.672,0,75.161,0S0,33.652,0,75.161
					C0,116.672,33.65,150.322,75.161,150.322"/>
			</g>
		</g>
	</g>
</g>
</svg>
