<svg xmlns="http://www.w3.org/2000/svg" xmlns:xlink="http://www.w3.org/1999/xlink" version="1.1" id="Layer_1" x="0px" y="0px" width="83.6px" height="79px" viewBox="0 0 150 150" style="enable-background:new 0 0 150 150;padding-left: 50px; padding-top: 110px" xml:space="preserve" transform="translate(33.2, 35.5)">
  <style type="text/css">
    .st0{fill:#1e85c9;}
    .st1{fill:none;stroke:#9BC43D;stroke-width:3;stroke-miterlimit:10;}
  </style>
  <path class="st0" d="M78,29.1l-8.7-6.7v-7.6c0-3.4-2.8-6.2-6.2-6.2H51.5l-6.3-4.9c-2.2-1.7-5.4-1.7-7.6,0l-6.3,4.9H19.7 c-3.4,0-6.2,2.8-6.2,6.2v7.6l-8.7,6.7c-0.4,0.3-0.6,0.7-0.6,1.2v40.3c0,1.8,0.8,3.5,2.1,4.6c1.1,1,2.6,1.6,4.1,1.6h62.1 c1.5,0,3-0.6,4.1-1.6c1.3-1.2,2.1-2.8,2.1-4.6V30.3C78.6,29.8,78.4,29.3,78,29.1z M75.2,71.9L50.5,52.8l25-19.3v37.2 C75.5,71.1,75.4,71.5,75.2,71.9z M74.5,30.3l-5.2,4v-8.1L74.5,30.3z M39.5,6.1c1.1-0.9,2.7-0.9,3.8,0l3.2,2.5H36.3L39.5,6.1z M19.7,11.7h43.4c1.7,0,3.1,1.4,3.1,3.1v22L43.3,54.5c-1.1,0.9-2.7,0.9-3.8,0L16.5,36.7v-22C16.5,13,17.9,11.7,19.7,11.7z M7.5,71.9 c-0.2-0.4-0.3-0.8-0.3-1.3V33.4l25,19.3L7.5,71.9z M13.4,34.3l-5.2-4l5.2-4V34.3z M10.3,73.7C10.3,73.7,10.3,73.7,10.3,73.7l24.4-19 l2.8,2.2c1.1,0.9,2.5,1.3,3.8,1.3s2.7-0.4,3.8-1.3l2.8-2.2l24.5,19c0,0-0.1,0-0.1,0H10.3z"></path>
  <path class="st1" d="M49.5,43.2H33.8c-0.8,0-1.5-0.7-1.5-1.5V29.2c0-0.8,0.7-1.5,1.5-1.5h15.7c0.8,0,1.5,0.7,1.5,1.5v12.4 C51,42.5,50.3,43.2,49.5,43.2z"></path>
  <path class="st1" d="M42,17.4h-0.7c-3,0-5.4,2.4-5.4,5.4v4.8h11.5v-4.8C47.4,19.8,45,17.4,42,17.4z"></path>
</svg>
